<svg width="202" height="93" viewBox="0 0 202 93" fill="none" xmlns="http://www.w3.org/2000/svg">
<path d="M66.1318 47.9844C69.0145 46.7233 72.1975 46.213 75.6807 46.4531C79.2242 46.6934 82.1674 47.3843 84.5098 48.5254C86.8521 49.6665 88.6845 51.0781 90.0059 52.7598C91.387 54.3812 92.3779 56.1526 92.9785 58.0742C93.5791 59.9361 93.8799 61.7387 93.8799 63.4805C93.9399 66.3632 93.1884 68.9454 91.627 71.2275C90.1255 73.5098 87.5733 75.0722 83.9697 75.9131C83.0088 76.1533 81.8672 76.3032 80.5459 76.3633C79.2847 76.4233 77.9335 76.4531 76.4922 76.4531C75.1108 76.4531 73.729 76.4233 72.3477 76.3633C70.9664 76.3032 69.7353 76.2427 68.6543 76.1826C67.5732 76.0625 66.7017 75.9731 66.041 75.9131C65.3924 75.8541 65.0624 75.8233 65.0508 75.8223C65.2309 76.6631 65.6509 77.5943 66.3115 78.6152C66.9721 79.6362 67.9333 80.5069 69.1943 81.2275C70.5157 81.9483 72.228 82.3096 74.3301 82.3096C76.6122 82.2495 78.564 82.1592 80.1855 82.0391C81.8672 81.9189 83.2192 81.7988 84.2402 81.6787C85.321 81.4986 86.1016 81.3784 86.582 81.3184C87.0592 81.1991 87.2994 81.1385 87.3027 81.1377H87.9336C88.3539 81.0777 88.8943 81.1075 89.5547 81.2275C90.2754 81.2876 90.9663 81.5288 91.627 81.9492C92.3476 82.3095 92.9483 82.8796 93.4287 83.6602C93.9693 84.5611 94.2095 85.3423 94.1494 86.0029C94.0893 86.6635 93.9097 87.2344 93.6094 87.7148C93.3091 88.1953 92.9785 88.5557 92.6182 88.7959C92.3199 89.0345 92.1699 89.1547 92.168 89.1562C92.168 89.1562 91.5367 89.4263 90.2754 89.9668C89.0143 90.4472 87.3629 90.9576 85.3213 91.498C83.3393 92.0986 81.1167 92.5195 78.6543 92.7598C76.1918 93 73.7589 92.9097 71.3564 92.4893C67.3926 91.7085 64.1494 90.5371 61.627 88.9756C59.1646 87.354 57.2725 85.4926 55.9512 83.3906C54.6298 81.2284 53.7295 78.9454 53.249 76.543C52.7686 74.0806 52.4976 71.6484 52.4375 69.2461C52.3774 66.3032 52.8887 63.4204 53.9697 60.5977C55.1108 57.7749 56.7022 55.2822 58.7441 53.1201C60.7862 50.8979 63.2489 49.1856 66.1318 47.9844ZM28.1084 32.9395C32.2525 32.8794 36.247 33.8701 40.0908 35.9121C42.0126 37.0532 43.604 38.4649 44.8652 40.1465C46.1265 41.8282 47.0576 43.6308 47.6582 45.5527C48.3188 47.4145 48.6494 49.3365 48.6494 51.3184C48.6494 53.2401 48.288 55.1016 47.5674 56.9033C47.5674 56.9033 47.4174 57.1437 47.1172 57.624C46.8169 58.0444 46.3066 58.4653 45.5859 58.8857C44.9253 59.2461 44.024 59.3662 42.8828 59.2461C41.5618 59.0659 40.5112 58.5852 39.7305 57.8047C38.9497 56.9638 38.4087 56.1826 38.1084 55.4619C37.81 54.6861 37.66 54.2958 37.6582 54.291C37.7183 53.5102 37.6279 52.3389 37.3877 50.7773C37.2075 49.1559 36.8769 47.5345 36.3965 45.9131C35.9761 45.4927 35.3457 45.1919 34.5049 45.0117C33.664 44.8315 32.6724 44.8018 31.5312 44.9219C30.3903 45.042 29.1888 45.3419 27.9277 45.8223C26.6666 46.3027 25.4057 46.9938 24.1445 47.8945C22.583 49.1558 21.1109 50.5673 19.7295 52.1289C18.4082 53.6304 17.2974 55.4024 16.3965 57.4443C15.4956 59.4262 14.8047 61.8585 14.3242 64.7412C14.0239 67.9243 14.2344 70.6572 14.9551 72.9395C15.7359 75.2217 16.9072 76.9043 18.4688 77.9854C19.9101 78.6459 21.3218 79.1265 22.7031 79.4268C24.0844 79.727 25.4962 79.8472 26.9375 79.7871C28.4389 79.727 30.0006 79.456 31.6221 78.9756C33.1234 78.375 34.295 77.7446 35.1357 77.084C36.0364 76.3633 36.2163 75.6425 35.6758 74.9219C34.5346 74.3213 33.1528 73.7505 31.5312 73.21C29.9698 72.6695 28.3783 72.1889 26.7568 71.7686C26.752 71.7657 26.602 71.6753 26.3066 71.498C26.0064 71.2579 25.6459 70.9579 25.2256 70.5977C24.8653 70.1773 24.5644 69.6669 24.3242 69.0664C24.084 68.4659 24.0543 67.7748 24.2344 66.9941C24.4146 66.0332 24.7451 65.3423 25.2256 64.9219C25.7661 64.5015 26.2764 64.2613 26.7568 64.2012C27.2348 64.0817 27.475 64.0211 27.4775 64.0205C29.2794 63.8403 31.1118 63.9912 32.9736 64.4717C34.8353 64.8921 36.5768 65.4927 38.1982 66.2734C39.8798 66.9941 41.3213 67.7447 42.5225 68.5254C43.8437 69.4262 45.0152 70.5372 46.0361 71.8584C47.0572 73.1797 47.7778 74.622 48.1982 76.1836C48.6186 77.685 48.5888 79.2467 48.1084 80.8682C47.6879 82.4897 46.6366 84.1109 44.9551 85.7324C43.4536 87.1137 41.622 88.3149 39.46 89.3359C37.2978 90.3569 34.9253 91.1084 32.3428 91.5889C29.8203 92.0693 27.2075 92.2192 24.5049 92.0391C21.8622 91.9189 19.2794 91.378 16.7568 90.417C14.5347 89.7563 12.4024 88.7656 10.3604 87.4443C8.31834 86.063 6.51662 84.3208 4.95508 82.2188C3.39359 80.1167 2.16259 77.624 1.26172 74.7412C0.42093 71.7983 0 68.435 0 64.6514C0.480472 60.9878 1.23098 57.5044 2.25195 54.2012C3.27295 50.8979 4.80471 47.8047 6.84668 44.9219C8.94872 42.0391 11.8018 39.3965 15.4053 36.9941C19.7296 34.3515 23.9642 32.9995 28.1084 32.9395ZM173.065 20.5283C179.784 20.2359 186.431 20.4917 193.005 21.2959C193.005 21.2959 193.294 21.4057 193.872 21.625C194.522 21.7712 195.281 22.027 196.148 22.3926C197.087 22.7581 197.991 23.2698 198.857 23.9277C199.724 24.5126 200.446 25.3173 201.024 26.3408C201.675 27.2913 202 28.4251 202 29.7412C201.928 31.3496 201.566 32.5924 200.916 33.4697C200.266 34.347 199.471 34.9684 198.532 35.334C197.665 35.6995 196.871 35.919 196.148 35.9922H195.173C192.283 35.6997 189.104 35.4802 185.636 35.334C184.345 35.2506 183.034 35.1814 181.701 35.1191C181.584 36.837 181.486 38.6273 181.409 40.4893C181.337 43.9256 181.265 47.5448 181.192 51.3467V62.9717C181.265 66.8468 181.373 70.6862 181.518 74.4883C181.662 78.2902 181.807 81.8731 181.951 85.2363C181.948 85.2488 181.876 85.5776 181.734 86.2227C181.662 86.8807 181.374 87.6127 180.868 88.417C180.435 89.2212 179.675 89.9524 178.592 90.6104C177.58 91.2683 176.135 91.5604 174.257 91.4873C172.379 91.4873 170.861 91.1217 169.705 90.3906C168.622 89.5865 167.791 88.7091 167.213 87.7588C166.635 86.7352 166.237 85.8571 166.021 85.126C165.876 84.3951 165.804 84.0293 165.804 84.0293C165.37 80.0812 165.046 75.8406 164.829 71.3076C164.685 66.7746 164.612 62.095 164.612 57.2695C164.612 52.4439 164.721 47.6177 164.938 42.792C165.061 40.0534 165.219 37.3854 165.412 34.7881C165.109 34.7875 164.806 34.7861 164.504 34.7861C161.108 34.7861 157.965 34.8224 155.075 34.8955H154.208C153.63 34.8955 152.908 34.822 152.041 34.6758C151.174 34.4565 150.271 34.1643 149.332 33.7988C148.465 33.3601 147.706 32.7751 147.056 32.0439C146.406 31.2397 145.973 30.1793 145.756 28.8633C145.611 27.5472 145.719 26.4869 146.08 25.6826C146.514 24.8053 147.092 24.1477 147.814 23.709C148.609 23.1973 149.404 22.8317 150.198 22.6123C150.993 22.393 151.644 22.246 152.149 22.1729C152.727 22.0997 153.017 22.0635 153.017 22.0635C159.736 21.2592 166.419 20.7477 173.065 20.5283ZM106.275 46.543C107.897 46.543 109.159 46.8735 110.06 47.5342C111.02 48.1948 111.711 48.9453 112.132 49.7861C112.215 49.9213 112.291 50.0548 112.363 50.1846C113.138 49.7814 113.931 49.4077 114.744 49.0654C117.026 48.0444 119.399 47.4141 121.861 47.1738C124.324 46.8735 126.696 47.084 128.979 47.8047C130.36 48.2852 131.832 48.9751 133.394 49.876C134.955 50.7168 136.486 51.8585 137.987 53.2998C139.549 54.6812 140.931 56.4531 142.132 58.6152C143.393 60.7774 144.384 63.3603 145.104 66.3633C145.765 69.3662 146.066 72.3393 146.006 75.2822C146.006 78.165 145.705 81.5582 145.104 85.4619C145.104 85.4619 145.015 85.7926 144.835 86.4531C144.715 87.1137 144.384 87.8345 143.844 88.6152C143.303 89.3959 142.462 90.0264 141.321 90.5068C140.24 90.9273 138.738 90.8975 136.816 90.417C135.195 89.9966 133.994 89.3363 133.213 88.4355C132.432 87.5346 131.891 86.6333 131.591 85.7324C131.351 84.7715 131.23 83.9306 131.23 83.21C131.29 82.4901 131.321 82.1298 131.321 82.1289C131.862 78.3451 132.042 74.711 131.861 71.2275C131.741 67.7442 131.111 64.9814 129.97 62.9395C129.009 61.258 127.778 60.147 126.276 59.6064C124.835 59.0058 123.273 58.8857 121.591 59.2461C119.969 59.6065 118.438 60.4176 116.997 61.6787C115.496 62.9399 114.384 64.4708 113.663 66.2725C113.252 67.3564 112.922 68.4524 112.674 69.5596C112.679 71.8616 112.709 74.3095 112.763 76.9033C112.883 79.7262 113.033 82.85 113.213 86.2734C113.21 86.2844 113.15 86.5547 113.032 87.084C112.972 87.6245 112.732 88.2549 112.312 88.9756C111.951 89.6963 111.321 90.2969 110.42 90.7773C109.579 91.2578 108.378 91.4683 106.816 91.4082C105.495 91.2881 104.384 90.9873 103.483 90.5068C102.643 89.9663 101.952 89.3657 101.411 88.7051C100.871 88.0445 100.479 87.4746 100.239 86.9941C100.059 86.4536 99.9697 86.1826 99.9697 86.1826C99.6094 82.9395 99.3384 79.9663 99.1582 77.2637C99.0381 74.5011 98.9785 71.8285 98.9785 69.2461C98.9785 66.6636 99.0381 63.9307 99.1582 61.0479C99.3384 58.1049 99.5786 54.8014 99.8789 51.1377C99.8789 51.1377 99.9395 50.8975 100.06 50.417C100.18 49.9365 100.42 49.3955 100.78 48.7949C101.201 48.1344 101.862 47.5942 102.763 47.1738C103.663 46.6935 104.834 46.483 106.275 46.543ZM79.1045 57.1738C77.9033 56.6934 76.2515 56.5435 74.1494 56.7236C72.7683 56.7837 71.5072 57.2038 70.3662 57.9844C69.2251 58.7652 68.2632 59.726 67.4824 60.8672C66.7016 62.0083 66.1011 63.1797 65.6807 64.3809C65.3203 65.522 65.2002 66.5136 65.3203 67.3545L77.9336 67.1738H78.3838C78.684 67.1138 79.0743 67.0234 79.5547 66.9033C80.0352 66.7231 80.4858 66.4829 80.9062 66.1826C81.3866 65.8824 81.7769 65.4622 82.0771 64.9219C82.3774 64.3214 82.5283 63.6005 82.5283 62.7598C82.5283 61.3183 82.2573 60.147 81.7168 59.2461C81.1763 58.2851 80.3057 57.5942 79.1045 57.1738ZM173.847 0C178.9 0 182.997 3.93891 182.997 8.79785C182.997 13.6568 178.9 17.5957 173.847 17.5957C168.794 17.5955 164.697 13.6567 164.697 8.79785C164.697 3.93902 168.794 0.000177418 173.847 0Z" fill="black"/>
</svg>
